<?xml version="1.0" encoding="UTF-8" standalone="no"?>
<!DOCTYPE svg PUBLIC "-//W3C//DTD SVG 1.1//EN"
 "http://www.w3.org/Graphics/SVG/1.1/DTD/svg11.dtd">
<!-- Generated by graphviz version 2.38.0 (20140413.2041)
 -->
<!-- Title: AssemblyDependencies Pages: 1 -->
<svg width="1197pt" height="260pt"
 viewBox="0.00 0.00 1196.53 260.00" xmlns="http://www.w3.org/2000/svg" xmlns:xlink="http://www.w3.org/1999/xlink">
<g id="graph0" class="graph" transform="scale(1 1) rotate(0) translate(4 256)">
<title>AssemblyDependencies</title>
<polygon fill="white" stroke="none" points="-4,4 -4,-256 1192.53,-256 1192.53,4 -4,4"/>
<!-- ICSharpCode.AvalonEdit -->
<g id="node1" class="node"><title>ICSharpCode.AvalonEdit</title>
<ellipse fill="none" stroke="black" cx="104.641" cy="-90" rx="104.782" ry="18"/>
<text text-anchor="middle" x="104.641" y="-86.3" font-family="Times New Roman,serif" font-size="14.00">ICSharpCode.AvalonEdit</text>
</g>
<!-- ILSpy -->
<g id="node2" class="node"><title>ILSpy</title>
<ellipse fill="none" stroke="black" cx="600.641" cy="-18" rx="33.5952" ry="18"/>
<text text-anchor="middle" x="600.641" y="-14.3" font-family="Times New Roman,serif" font-size="14.00">ILSpy</text>
</g>
<!-- ICSharpCode.AvalonEdit&#45;&gt;ILSpy -->
<g id="edge1" class="edge"><title>ICSharpCode.AvalonEdit&#45;&gt;ILSpy</title>
<path fill="none" stroke="black" d="M180.298,-77.4917C192.77,-75.6309 205.565,-73.7438 217.641,-72 341.184,-54.1595 487.331,-34.2726 558.058,-24.7254"/>
<polygon fill="black" stroke="black" points="558.899,-28.1438 568.341,-23.3385 557.963,-21.2066 558.899,-28.1438"/>
</g>
<!-- ICSharpCode.TreeView -->
<g id="node3" class="node"><title>ICSharpCode.TreeView</title>
<ellipse fill="none" stroke="black" cx="325.641" cy="-90" rx="98.5829" ry="18"/>
<text text-anchor="middle" x="325.641" y="-86.3" font-family="Times New Roman,serif" font-size="14.00">ICSharpCode.TreeView</text>
</g>
<!-- ICSharpCode.TreeView&#45;&gt;ILSpy -->
<g id="edge2" class="edge"><title>ICSharpCode.TreeView&#45;&gt;ILSpy</title>
<path fill="none" stroke="black" d="M380.63,-75.0027C433.93,-61.4354 513.479,-41.1867 560.899,-29.1161"/>
<polygon fill="black" stroke="black" points="561.967,-32.4558 570.795,-26.5971 560.241,-25.6721 561.967,-32.4558"/>
</g>
<!-- ICSharpCode.Decompiler -->
<g id="node4" class="node"><title>ICSharpCode.Decompiler</title>
<ellipse fill="none" stroke="black" cx="784.641" cy="-90" rx="105.881" ry="18"/>
<text text-anchor="middle" x="784.641" y="-86.3" font-family="Times New Roman,serif" font-size="14.00">ICSharpCode.Decompiler</text>
</g>
<!-- ICSharpCode.Decompiler&#45;&gt;ILSpy -->
<g id="edge3" class="edge"><title>ICSharpCode.Decompiler&#45;&gt;ILSpy</title>
<path fill="none" stroke="black" d="M743.348,-73.2906C711.319,-61.1058 667.366,-44.3845 636.733,-32.7308"/>
<polygon fill="black" stroke="black" points="637.879,-29.4219 627.288,-29.1374 635.39,-35.9645 637.879,-29.4219"/>
</g>
<!-- Mono.Cecil -->
<g id="node5" class="node"><title>Mono.Cecil</title>
<ellipse fill="none" stroke="black" cx="650.641" cy="-162" rx="53.8905" ry="18"/>
<text text-anchor="middle" x="650.641" y="-158.3" font-family="Times New Roman,serif" font-size="14.00">Mono.Cecil</text>
</g>
<!-- Mono.Cecil&#45;&gt;ILSpy -->
<g id="edge8" class="edge"><title>Mono.Cecil&#45;&gt;ILSpy</title>
<path fill="none" stroke="black" d="M648.625,-143.804C646.106,-125.528 640.948,-96.0125 631.641,-72 627.866,-62.2627 622.441,-52.2161 617.181,-43.5231"/>
<polygon fill="black" stroke="black" points="620.122,-41.6253 611.835,-35.0238 614.196,-45.3521 620.122,-41.6253"/>
</g>
<!-- Mono.Cecil&#45;&gt;ICSharpCode.Decompiler -->
<g id="edge4" class="edge"><title>Mono.Cecil&#45;&gt;ICSharpCode.Decompiler</title>
<path fill="none" stroke="black" d="M678.406,-146.496C697.37,-136.589 722.811,-123.299 744.041,-112.209"/>
<polygon fill="black" stroke="black" points="745.912,-115.18 753.155,-107.448 742.671,-108.976 745.912,-115.18"/>
</g>
<!-- Mono.Cecil.Pdb -->
<g id="node9" class="node"><title>Mono.Cecil.Pdb</title>
<ellipse fill="none" stroke="black" cx="551.641" cy="-90" rx="71.4873" ry="18"/>
<text text-anchor="middle" x="551.641" y="-86.3" font-family="Times New Roman,serif" font-size="14.00">Mono.Cecil.Pdb</text>
</g>
<!-- Mono.Cecil&#45;&gt;Mono.Cecil.Pdb -->
<g id="edge15" class="edge"><title>Mono.Cecil&#45;&gt;Mono.Cecil.Pdb</title>
<path fill="none" stroke="black" d="M628.669,-145.465C615.241,-135.97 597.849,-123.672 582.99,-113.166"/>
<polygon fill="black" stroke="black" points="584.768,-110.137 574.583,-107.222 580.727,-115.853 584.768,-110.137"/>
</g>
<!-- ICSharpCode.NRefactory -->
<g id="node6" class="node"><title>ICSharpCode.NRefactory</title>
<ellipse fill="none" stroke="black" cx="828.641" cy="-234" rx="106.681" ry="18"/>
<text text-anchor="middle" x="828.641" y="-230.3" font-family="Times New Roman,serif" font-size="14.00">ICSharpCode.NRefactory</text>
</g>
<!-- ICSharpCode.NRefactory&#45;&gt;ILSpy -->
<g id="edge10" class="edge"><title>ICSharpCode.NRefactory&#45;&gt;ILSpy</title>
<path fill="none" stroke="black" d="M747.631,-222.218C699.869,-214.152 638.938,-200.845 587.641,-180 531.426,-157.156 501.138,-161.027 471.641,-108 463.863,-94.0178 462.732,-85.2907 471.641,-72 490.694,-43.5738 528.029,-30.3806 557.652,-24.2649"/>
<polygon fill="black" stroke="black" points="558.574,-27.6535 567.765,-22.3835 557.294,-20.7715 558.574,-27.6535"/>
</g>
<!-- ICSharpCode.NRefactory&#45;&gt;ICSharpCode.Decompiler -->
<g id="edge5" class="edge"><title>ICSharpCode.NRefactory&#45;&gt;ICSharpCode.Decompiler</title>
<path fill="none" stroke="black" d="M799.332,-216.501C786.464,-207.534 772.699,-195.161 765.641,-180 756.371,-160.088 762.772,-135.557 770.557,-117.296"/>
<polygon fill="black" stroke="black" points="773.78,-118.665 774.806,-108.12 767.428,-115.724 773.78,-118.665"/>
</g>
<!-- ICSharpCode.NRefactory.CSharp -->
<g id="node7" class="node"><title>ICSharpCode.NRefactory.CSharp</title>
<ellipse fill="none" stroke="black" cx="910.641" cy="-162" rx="136.476" ry="18"/>
<text text-anchor="middle" x="910.641" y="-158.3" font-family="Times New Roman,serif" font-size="14.00">ICSharpCode.NRefactory.CSharp</text>
</g>
<!-- ICSharpCode.NRefactory&#45;&gt;ICSharpCode.NRefactory.CSharp -->
<g id="edge7" class="edge"><title>ICSharpCode.NRefactory&#45;&gt;ICSharpCode.NRefactory.CSharp</title>
<path fill="none" stroke="black" d="M848.491,-216.055C858.789,-207.264 871.538,-196.38 882.804,-186.763"/>
<polygon fill="black" stroke="black" points="885.356,-189.186 890.689,-180.032 880.811,-183.862 885.356,-189.186"/>
</g>
<!-- ICSharpCode.NRefactory.VB -->
<g id="node8" class="node"><title>ICSharpCode.NRefactory.VB</title>
<ellipse fill="none" stroke="black" cx="1067.64" cy="-90" rx="120.779" ry="18"/>
<text text-anchor="middle" x="1067.64" y="-86.3" font-family="Times New Roman,serif" font-size="14.00">ICSharpCode.NRefactory.VB</text>
</g>
<!-- ICSharpCode.NRefactory&#45;&gt;ICSharpCode.NRefactory.VB -->
<g id="edge12" class="edge"><title>ICSharpCode.NRefactory&#45;&gt;ICSharpCode.NRefactory.VB</title>
<path fill="none" stroke="black" d="M914.19,-223.173C970.247,-214.898 1036.55,-201.001 1055.64,-180 1070.59,-163.548 1072.61,-137.811 1071.47,-118.237"/>
<polygon fill="black" stroke="black" points="1074.94,-117.746 1070.57,-108.095 1067.96,-118.365 1074.94,-117.746"/>
</g>
<!-- ICSharpCode.NRefactory.CSharp&#45;&gt;ILSpy -->
<g id="edge9" class="edge"><title>ICSharpCode.NRefactory.CSharp&#45;&gt;ILSpy</title>
<path fill="none" stroke="black" d="M913.968,-143.763C916.744,-123.76 917.751,-91.0867 899.641,-72 865.373,-35.886 718.925,-24.2116 644.473,-20.5721"/>
<polygon fill="black" stroke="black" points="644.615,-17.075 634.464,-20.1102 644.292,-24.0676 644.615,-17.075"/>
</g>
<!-- ICSharpCode.NRefactory.CSharp&#45;&gt;ICSharpCode.Decompiler -->
<g id="edge6" class="edge"><title>ICSharpCode.NRefactory.CSharp&#45;&gt;ICSharpCode.Decompiler</title>
<path fill="none" stroke="black" d="M880.78,-144.411C863.52,-134.822 841.619,-122.655 823.082,-112.356"/>
<polygon fill="black" stroke="black" points="824.728,-109.267 814.287,-107.47 821.328,-115.386 824.728,-109.267"/>
</g>
<!-- ICSharpCode.NRefactory.CSharp&#45;&gt;ICSharpCode.NRefactory.VB -->
<g id="edge13" class="edge"><title>ICSharpCode.NRefactory.CSharp&#45;&gt;ICSharpCode.NRefactory.VB</title>
<path fill="none" stroke="black" d="M947.45,-144.588C969.774,-134.635 998.434,-121.857 1022.17,-111.274"/>
<polygon fill="black" stroke="black" points="1023.62,-114.457 1031.33,-107.188 1020.77,-108.064 1023.62,-114.457"/>
</g>
<!-- ICSharpCode.NRefactory.VB&#45;&gt;ILSpy -->
<g id="edge11" class="edge"><title>ICSharpCode.NRefactory.VB&#45;&gt;ILSpy</title>
<path fill="none" stroke="black" d="M985.761,-76.7268C885.826,-61.7472 720.61,-36.9826 643.172,-25.3751"/>
<polygon fill="black" stroke="black" points="643.251,-21.848 632.843,-23.8269 642.214,-28.7707 643.251,-21.848"/>
</g>
<!-- Mono.Cecil.Pdb&#45;&gt;ILSpy -->
<g id="edge14" class="edge"><title>Mono.Cecil.Pdb&#45;&gt;ILSpy</title>
<path fill="none" stroke="black" d="M563.502,-72.055C569.487,-63.5048 576.858,-52.975 583.451,-43.5561"/>
<polygon fill="black" stroke="black" points="586.358,-45.5065 589.226,-35.307 580.624,-41.4922 586.358,-45.5065"/>
</g>
</g>
</svg>
